<svg width="44" height="36" viewBox="0 0 44 36" fill="none" xmlns="http://www.w3.org/2000/svg">
<path fill-rule="evenodd" clip-rule="evenodd" d="M17.6264 0.5H32.4281L43.8942 19.1661L28.1156 35.115L5.42725 31.0691L0.269531 11.8593L17.6264 0.5ZM18.1537 5.4692L11.3377 20.5742L17.7881 25.9153L26.6127 22.1178L18.1537 5.4692ZM30.4813 20.7692L39.6952 18.0619L32.4969 6.3435L30.4813 20.7692ZM29.865 3.5H20.5182L27.8491 17.9284L29.865 3.5ZM36.8445 22.0263L30.0655 24.0182L29.5207 29.4291L36.8445 22.0263ZM26.344 31.0343L26.9264 25.2487L20.8691 27.8554L26.344 31.0343ZM19.5046 30.5321L8.59199 28.5862L10.2394 23.5598L16.6774 28.8906L19.5046 30.5321ZM7.80678 21.3497L5.10308 18.2926L6.77176 24.5076L7.80678 21.3497ZM4.27246 12.8249L9.08679 18.2686L14.5903 6.0723L4.27246 12.8249Z" fill="#444CE7"/>
</svg>
